<?xml version="1.0" encoding="utf-8"?>
<svg version="1.1" xmlns="http://www.w3.org/2000/svg" width="64" height="64">
    <circle cx="32" cy="32" r="32" fill="#1A9EFE"/>
    <path fill="#A2D7FE" d="M40.411,34.212c-6.561-6.748-16.75-6.06-21.383,0.785
		c-2.579,3.812-7.592,3.885-10.264,0.207c-1.039-1.43-0.056-2.468,0.485-3.576c5.214-10.702,15.905-14.944,28.313-11.206
		c1.69,0.509,3.343,1.205,4.932,1.982c1.352,0.661,2.386,1.467,3.606-0.413c1.159-1.783,3.141-1.367,4.838-0.76
		c1.755,0.627,1.471,2.311,1.563,3.754c0.271,4.227,0.584,8.452,0.813,12.682c0.165,3.034-1.242,4.524-4.32,4.447
		c-4.025-0.101-8.055-0.15-12.08-0.075c-2.663,0.051-4.245-0.548-4.134-3.801c0.102-2.961,1.153-4.216,4.076-3.874
		C37.786,34.476,38.751,34.295,40.411,34.212z"/>
</svg>
